# xmcd CD database file
#
# Track frame offsets:
#	150
#	15493
#	28402
#	39160
#	55447
#	67103
#	79640
#	90164
#	105037
#	118882
#	131745
#	142762
#	156649
#	168949
#	179787
#	194142
#	216280
#	231881
#	245059
#	257966
#
# Disc length: 3614 seconds
#
# Revision: 6
# Processed by: cddbd v1.5.2PL0 Copyright (c) Steve Scherf et al.
# Submitted via: CDex 1.51
#
DISCID=230e1c14
DTITLE=Glenn Miller - Vol.05 - In The Mood
DYEAR=1900
DGENRE=Jazz
TTITLE0=Ring, Telephone, Ring
TTITLE1=Make Believe Ballroom Time
TTITLE2=You've Got Me This Way
TTITLE3=A Nightingale Sang In Berkeley Square
TTITLE4=I'd Know You Anywhere
TTITLE5=Fresh As A Daisy
TTITLE6=Isn't That Just Like Love
TTITLE7=Along The Santa Fe Trail
TTITLE8=Do You Know Why
TTITLE9=Somewhere
TTITLE10=Yes, My Darling Daughter
TTITLE11=A Stone's Throw From Heaven
TTITLE12=Helpless
TTITLE13=Long Time No See, Baby
TTITLE14=You Are The One
TTITLE15=Anvil Chorus  (Parts I and II)
TTITLE16=Frensi
TTITLE17=The Mem'ry Of A Rose
TTITLE18=I Do, Do You ¿ (Do You Believe In Love ¿)
TTITLE19=Chapel In The Valley
EXTD=Vol 5 of a 10 CD box\n\n(P) 2000 Trumpets Of Jericho Ltd.\n(C) 2000 TIM The International Music Company AG\n\nOder No. 204275\n
EXTT0=
EXTT1=
EXTT2=
EXTT3=
EXTT4=
EXTT5=Cole Porter\n
EXTT6=
EXTT7=
EXTT8=
EXTT9=
EXTT10=
EXTT11=
EXTT12=
EXTT13=
EXTT14=
EXTT15=Giuseppe Verdi\n
EXTT16=
EXTT17=
EXTT18=
EXTT19=
PLAYORDER=
